<?xml version="1.0" encoding="UTF-8"?>
<svg id="Layer_1" xmlns="http://www.w3.org/2000/svg" version="1.1" viewBox="0 0 1733.3 1558.9">
  <!-- Generator: Adobe Illustrator 29.7.1, SVG Export Plug-In . SVG Version: 2.1.1 Build 8)  -->
  <defs>
    <style>
      .st0 {
        fill: #151518;
      }
    </style>
  </defs>
  <path id="AULA_3" class="st0" d="M599.3,1529.8h534.6c4.1,0,7.9-2.6,9.3-6.4l87.7-230.1c2.5-6.5-2.3-13.6-9.3-13.6H511.6c-7,0-11.8,7-9.3,13.6l87.7,230.1c1.5,3.9,5.2,6.4,9.3,6.4Z"/>
  <path id="AULA_2" class="st0" d="M401.7,1029.6h0s85.4,223.9,85.4,223.9c1.5,3.9,5.2,6.4,9.3,6.4h740.4c4.1,0,7.9-2.6,9.3-6.4l85.4-223.9h0s-929.9,0-929.9,0Z"/>
  <path id="AULA_1" class="st0" d="M306.3,779.4h0s85.4,223.9,85.4,223.9c1.5,3.9,5.2,6.4,9.3,6.4h931.1c4.1,0,7.9-2.6,9.3-6.4l85.4-223.9h0s-1120.6,0-1120.6,0Z"/>
  <path id="CONFIRMACAO" class="st0" d="M305.7,759.7h1121.9c4.1,0,7.9-2.6,9.3-6.4l80.2-210.4c2.5-6.5-2.3-13.6-9.3-13.6H225.5c-7,0-11.8,7-9.3,13.6l80.2,210.4c1.5,3.9,5.2,6.4,9.3,6.4Z"/>
  <path id="CADASTRO" class="st0" d="M210.3,509.6h1312.6c4.1,0,7.9-2.6,9.3-6.4l80.2-210.4c2.5-6.5-2.3-13.6-9.3-13.6H130.1c-7,0-11.8,7-9.3,13.6l80.2,210.4c1.5,3.9,5.2,6.4,9.3,6.4Z"/>
  <path id="VSL" class="st0" d="M1627.7,253l80.2-210.4c2.5-6.5-2.3-13.6-9.3-13.6H34.7c-7,0-11.8,7-9.3,13.6l80.2,210.4c1.5,3.9,5.2,6.4,9.3,6.4h1503.4c4.1,0,7.9-2.6,9.3-6.4Z"/>
</svg>